# xmcd CD database file
#
# Track frame offsets:
#	187
#	10575
#	23962
#	56175
#	73387
#	96075
#	115800
#	132037
#	149700
#	170437
#	189075
#
# Disc length: 2829 seconds
#
# Revision: 1
# Processed by: cddbd v1.5.1PL0 Copyright (c) Steve Scherf et al.
# Submitted via: CDex 1.51
#
DISCID=990b0b0b
DTITLE=タブラトゥーラ - TABLATURA3
DYEAR=1900
DGENRE=New Age
TTITLE0=チルドレン・チルドレン
TTITLE1=ヴァージン・クィーン
TTITLE2=聖母マリア頌歌
TTITLE3=モリスク
TTITLE4=青海亀の夢
TTITLE5=カレリア
TTITLE6=アルルカン
TTITLE7=トロット
TTITLE8=王のエスタンピー
TTITLE9=へべれけ
TTITLE10=子守唄
EXTD=
EXTT0=
EXTT1=
EXTT2=
EXTT3=
EXTT4=
EXTT5=
EXTT6=
EXTT7=
EXTT8=
EXTT9=
EXTT10=
PLAYORDER=
